<?xml version="1.0"?>
<svg xmlns="http://www.w3.org/2000/svg" xmlns:xlink="http://www.w3.org/1999/xlink" version="1.1" viewBox="0 0 224 224" width="26px" height="26px"><g transform="translate(8.96,8.96) scale(0.92,0.92)"><g fill="none" fill-rule="nonzero" stroke="none" stroke-width="none" stroke-linecap="butt" stroke-linejoin="none" stroke-miterlimit="10" stroke-dasharray="" stroke-dashoffset="0" font-family="none" font-weight="none" font-size="none" text-anchor="none" style="mix-blend-mode: normal"><g id="original-icon 1" fill="#ffffff" stroke="#000000" stroke-width="18" stroke-linejoin="round"><g id="surface1 1"><path d="M224,60.30769v103.38462c0,14.63943 -11.20673,25.84615 -25.84615,25.84615h-172.30769c-14.63943,0 -25.84615,-11.20673 -25.84615,-25.84615v-103.38462c0,-14.63943 11.20673,-25.84615 25.84615,-25.84615h172.30769c14.63943,0 25.84615,11.20673 25.84615,25.84615zM150.76923,112l65.49039,-51.69231l-104.25962,56l-105.10096,-56.875l66.33173,51.69231l-54.28365,56l66.33173,-48.22597l26.72115,17.23077l25.84615,-17.23077l67.20673,48.22597z"/></g></g><path d="M0,224v-224h224v224z" fill="none" stroke="none" stroke-width="1" stroke-linejoin="miter"/><g id="original-icon" fill="#ffffff" stroke="none" stroke-width="1" stroke-linejoin="miter"><g id="surface1"><path d="M198.15385,34.46154h-172.30769c-14.63943,0 -25.84615,11.20673 -25.84615,25.84615v103.38462c0,14.63943 11.20673,25.84615 25.84615,25.84615h172.30769c14.63943,0 25.84615,-11.20673 25.84615,-25.84615v-103.38462c0,-14.63943 -11.20673,-25.84615 -25.84615,-25.84615zM205.05288,167.125l-67.20673,-48.22597l-25.84615,17.23077l-26.72115,-17.23077l-66.33173,48.22597l54.28365,-56l-66.33173,-51.69231l105.10096,56.875l104.25962,-56l-65.49039,51.69231z"/></g></g><path d="" fill="none" stroke="none" stroke-width="1" stroke-linejoin="miter"/><path d="" fill="none" stroke="none" stroke-width="1" stroke-linejoin="miter"/><path d="" fill="none" stroke="none" stroke-width="1" stroke-linejoin="miter"/><path d="" fill="none" stroke="none" stroke-width="1" stroke-linejoin="miter"/><path d="" fill="none" stroke="none" stroke-width="1" stroke-linejoin="miter"/><path d="" fill="none" stroke="none" stroke-width="1" stroke-linejoin="miter"/><path d="" fill="none" stroke="none" stroke-width="1" stroke-linejoin="miter"/><path d="M112,224c-61.85589,0 -112,-50.14411 -112,-112v0c0,-61.85589 50.14411,-112 112,-112v0c61.85589,0 112,50.14411 112,112v0c0,61.85589 -50.14411,112 -112,112z" fill="none" stroke="none" stroke-width="1" stroke-linejoin="miter"/><path d="M112,219.52c-59.38166,0 -107.52,-48.13834 -107.52,-107.52v0c0,-59.38166 48.13834,-107.52 107.52,-107.52h0c59.38166,0 107.52,48.13834 107.52,107.52v0c0,59.38166 -48.13834,107.52 -107.52,107.52z" fill="none" stroke="none" stroke-width="1" stroke-linejoin="miter"/><path d="M0,224v-224h224v224z" fill="none" stroke="none" stroke-width="1" stroke-linejoin="miter"/><path d="M4.48,219.52v-215.04h215.04v215.04z" fill="none" stroke="none" stroke-width="1" stroke-linejoin="miter"/><path d="" fill="none" stroke="none" stroke-width="1" stroke-linejoin="miter"/><path d="" fill="none" stroke="none" stroke-width="1" stroke-linejoin="miter"/></g></g></svg>
