<?xml version="1.0"?>
<svg xmlns="http://www.w3.org/2000/svg" xmlns:xlink="http://www.w3.org/1999/xlink" version="1.1" viewBox="0 0 224 224" width="48px" height="48px"><g fill="none" fill-rule="nonzero" stroke="none" stroke-width="1" stroke-linecap="butt" stroke-linejoin="miter" stroke-miterlimit="10" stroke-dasharray="" stroke-dashoffset="0" font-family="none" font-weight="none" font-size="none" text-anchor="none" style="mix-blend-mode: normal"><path d="M0,224v-224h224v224z" fill="none"/><g id="Layer_1"><path d="M28,196v-168h168v168z" fill="#e67e22"/><path d="M137.844,153.75267c3.22933,5.24533 6.73867,10.27133 14.17267,10.27133c6.244,0 9.52,-3.10333 9.52,-7.39667c0,-5.138 -3.388,-6.96267 -10.25733,-9.954l-3.766,-1.60533c-10.86867,-4.61067 -18.09733,-10.388 -18.09733,-22.59133c0,-11.24667 8.61,-19.80533 22.064,-19.80533c9.58067,0 16.464,3.318 21.42933,12.00733l-11.732,7.49933c-2.58067,-4.61067 -5.37133,-6.426 -9.69733,-6.426c-4.41467,0 -7.21,2.786 -7.21,6.426c0,4.49867 2.8,6.31867 9.26333,9.10467l3.766,1.60533c12.81,5.45533 20.034,11.02733 20.034,23.55267c0,13.496 -10.65867,20.89267 -24.96667,20.89267c-13.99533,0 -21.94267,-7.02333 -26.36667,-15.71733z" fill="#ffffff"/><path d="M83.776,154.13533c2.36133,4.228 5.95,7.48067 11.11133,7.48067c4.93733,0 7.77933,-1.95067 7.77933,-9.534v-49.41533h15.554v51.80467c0,15.71267 -9.114,22.862 -22.42333,22.862c-12.026,0 -20.706,-8.148 -24.24333,-15.71733z" fill="#ffffff"/></g></g></svg>
