<svg xmlns="http://www.w3.org/2000/svg" xmlns:xlink="http://www.w3.org/1999/xlink" width="90" height="57" viewBox="0 0 90 57"><defs><clipPath id="b"><use xlink:href="#a"/></clipPath></defs><g transform="translate(-792 -385)"><g transform="translate(-2 3)"><g transform="translate(794 382)" fill="#fff" stroke="#707070" stroke-width="1"><rect width="90" height="38" rx="2" stroke="none"/><rect x="0.5" y="0.5" width="89" height="37" rx="1.5" fill="none"/></g><g transform="translate(812 429)" fill="#fff" stroke="#707070" stroke-width="1"><path d="M10,0H44A10,10,0,0,1,54,10v0a0,0,0,0,1,0,0H0a0,0,0,0,1,0,0v0A10,10,0,0,1,10,0Z" stroke="none"/><path d="M9.455.5h35.09A8.955,8.955,0,0,1,53.5,9.455v0a.045.045,0,0,1-.045.045H.545A.045.045,0,0,1,.5,9.455v0A8.955,8.955,0,0,1,9.455.5Z" fill="none"/></g><g transform="translate(827 419)" fill="#fff" stroke="#707070" stroke-width="1"><rect width="22" height="11" stroke="none"/><rect x="0.5" y="0.5" width="21" height="10" fill="none"/></g><g transform="translate(44 -71)"><g transform="translate(761 461)" fill="#fff" stroke="#707070" stroke-width="0.3"><rect width="14" height="21.5" rx="1" stroke="none"/><rect x="0.15" y="0.15" width="13.7" height="21.2" rx="0.85" fill="none"/></g><path d="M835.769,478.6h0Z" transform="translate(-61 0.904)" fill="none" stroke="#707070" stroke-width="0.3"/><g transform="translate(767 480.5)" fill="#fff" stroke="#707070" stroke-width="1"><rect width="3" height="1" rx="0.3" stroke="none"/><rect x="0.5" y="0.5" width="2" fill="none"/></g><g transform="translate(766 461.8)" fill="#fff" stroke="#707070" stroke-width="1"><rect id="a" width="3" height="0.5" rx="0.25" stroke="none"/><path d="M0,0h3M2.5,0v0.5M3,0.5h-3M0.5,0.5v-0.5" fill="none" clip-path="url(#b)"/></g><g transform="translate(772 461.5)" fill="#fff" stroke="#707070" stroke-width="1"><circle cx="0.5" cy="0.5" r="0.5" stroke="none"/><circle cx="0.5" cy="0.5" fill="none"/></g><g transform="translate(765 461.8)" fill="#fff" stroke="#707070" stroke-width="1"><circle cx="0.25" cy="0.25" r="0.25" stroke="none"/><circle cx="0.25" cy="0.25" r="0.25" fill="none"/></g><g transform="translate(764.3 461.8)" fill="#fff" stroke="#707070" stroke-width="1"><circle cx="0.25" cy="0.25" r="0.25" stroke="none"/><circle cx="0.25" cy="0.25" r="0.25" fill="none"/></g></g><g transform="translate(77 -90)"><g transform="translate(748 478)" fill="#fff" stroke="#707070" stroke-width="0.3"><rect width="49" height="27" rx="0.5" stroke="none"/><rect x="0.15" y="0.15" width="48.7" height="26.7" rx="0.35" fill="none"/></g><circle cx="0.5" cy="0.5" r="0.5" transform="translate(750 479)" fill="#707070"/><circle cx="0.5" cy="0.5" r="0.5" transform="translate(751.7 479)" fill="#707070"/><circle cx="0.5" cy="0.5" r="0.5" transform="translate(753.5 479)" fill="#707070"/></g></g></g></svg>